<svg width="24" height="24" viewBox="0 0 24 24" fill="none" xmlns="http://www.w3.org/2000/svg">
<path d="M4.5 4.5C4.5 2.84314 5.84314 1.5 7.5 1.5C9.15686 1.5 10.5 2.84314 10.5 4.5C10.5 5.46714 10.0423 6.32739 9.3318 6.876C9.31042 6.89177 9.28919 6.90772 9.2681 6.92385C8.77228 7.28615 8.16111 7.5 7.5 7.5C5.84314 7.5 4.5 6.15686 4.5 4.5Z" fill="#DDDDDD"/>
<path d="M14.6682 6.876C14.6896 6.89177 14.7108 6.90772 14.7319 6.92387C15.2277 7.28616 15.8389 7.5 16.5 7.5C18.1569 7.5 19.5 6.15686 19.5 4.5C19.5 2.84314 18.1569 1.5 16.5 1.5C14.8431 1.5 13.5 2.84314 13.5 4.5C13.5 5.46714 13.9577 6.32739 14.6682 6.876Z" fill="#DDDDDD"/>
<path d="M9.40134 9C9.92006 8.1033 10.8896 7.5 12 7.5C13.1104 7.5 14.0799 8.1033 14.5987 9C14.8539 9.44125 15 9.95357 15 10.5C15 12.1569 13.6569 13.5 12 13.5C10.3431 13.5 9 12.1569 9 10.5C9 9.95357 9.14609 9.44125 9.40134 9Z" fill="#DDDDDD"/>
<path d="M3.74997 9H7.75607C7.59023 9.46917 7.5 9.97404 7.5 10.5C7.5 11.6525 7.93327 12.7039 8.64583 13.5H8.24997C6.62226 13.5 5.2368 14.5371 4.7182 15.9864C4.20826 15.779 3.73647 15.5079 3.31823 15.1722C2.18846 14.2654 1.5 12.9241 1.5 11.25C1.5 10.0074 2.50734 9 3.74997 9Z" fill="#DDDDDD"/>
<path d="M15.75 13.5C17.3776 13.5 18.7632 14.5371 19.2817 15.9864C19.7917 15.779 20.2635 15.5079 20.6818 15.1722C21.8115 14.2654 22.5 12.9241 22.5 11.25C22.5 10.0074 21.4926 9 20.25 9H16.2439C16.4097 9.46917 16.5 9.97404 16.5 10.5C16.5 11.6525 16.0666 12.7039 15.3541 13.5H15.75Z" fill="#DDDDDD"/>
<path d="M17.8307 16.392C17.9397 16.6565 18 16.9462 18 17.25C18 18.9241 17.3115 20.2655 16.1819 21.1722C15.0699 22.0647 13.5796 22.5 12 22.5C10.4204 22.5 8.93013 22.0647 7.81823 21.1722C6.68846 20.2655 6 18.9241 6 17.25C6 16.9462 6.06022 16.6565 6.16938 16.392C6.50667 15.575 7.31116 15 8.24997 15H15.75C16.6889 15 17.4933 15.575 17.8307 16.392Z" fill="#DDDDDD"/>
</svg>
