<svg width="24" height="24" viewBox="0 0 24 24" fill="none" xmlns="http://www.w3.org/2000/svg">
<path d="M19.071 4.92922C18.1454 3.99628 17.0439 3.25623 15.8304 2.75191C14.6168 2.2476 13.3152 1.98905 12.001 1.99122C10.6865 1.98917 9.3847 2.24777 8.17081 2.75207C6.95693 3.25637 5.85508 3.99636 4.92901 4.92922C1.03001 8.82722 1.03001 15.1722 4.92901 19.0712C5.8551 20.0043 6.95709 20.7445 8.17118 21.2488C9.38527 21.7531 10.6873 22.0116 12.002 22.0092C13.3161 22.0115 14.6177 21.7531 15.8312 21.249C17.0448 20.7449 18.1463 20.005 19.072 19.0722C22.971 15.1742 22.971 8.82922 19.071 4.92922ZM12.181 4.00022H11.822C11.883 3.99922 11.941 3.99122 12.002 3.99122C12.063 3.99122 12.12 3.99922 12.181 4.00022ZM18.243 17.0002H16L14.742 19.5162C13.8644 19.8404 12.9366 20.0073 12.001 20.0092C11.0637 20.0075 10.1341 19.8403 9.25501 19.5152L8.00001 17.0102H5.76501C4.94045 15.9851 4.38282 14.7716 4.14201 13.4782L6.00001 11.0002L4.78401 8.56722C5.17202 7.74181 5.69941 6.98946 6.34301 6.34322C7.2438 5.43928 8.3479 4.76413 9.56301 4.37422L12 6.00022L14.438 4.37522C15.6528 4.76541 16.7567 5.44014 17.658 6.34322C18.3009 6.98869 18.8279 7.73999 19.216 8.56422L18 11.0002L19.858 13.4782C19.6183 14.7674 19.0635 15.9773 18.243 17.0002Z" fill="#DDDDDD"/>
<path d="M8.5 11L10 15H14L15.5 11L12 8.5L8.5 11Z" fill="#DDDDDD"/>
</svg>
