<svg width="40" height="40" viewBox="0 0 40 40" fill="none" xmlns="http://www.w3.org/2000/svg">
<rect width="40" height="40" rx="4" fill="#F2F2F2"/>
<path d="M13.0251 28.776C12.9908 28.9227 12.9902 29.0752 13.0233 29.2221C13.0564 29.3691 13.1223 29.5066 13.2161 29.6245C13.3099 29.7423 13.4291 29.8374 13.5649 29.9026C13.7007 29.9678 13.8495 30.0015 14.0001 30.001C14.1976 30.001 14.3907 29.9426 14.5551 29.833L20.0001 26.203L25.4451 29.833C25.6154 29.9461 25.8163 30.0043 26.0207 29.9998C26.2251 29.9953 26.4233 29.9284 26.5885 29.8079C26.7537 29.6875 26.8781 29.5193 26.9449 29.3261C27.0116 29.1328 27.0177 28.9238 26.9621 28.727L25.1331 22.327L29.6691 18.245C29.8144 18.1142 29.9181 17.9437 29.9675 17.7545C30.0169 17.5654 30.0098 17.3659 29.947 17.1807C29.8842 16.9956 29.7685 16.8329 29.6143 16.7128C29.46 16.5927 29.274 16.5205 29.0791 16.505L23.3781 16.051L20.9111 10.59C20.8325 10.4141 20.7047 10.2647 20.5431 10.1598C20.3815 10.055 20.193 9.99913 20.0004 9.99902C19.8078 9.99892 19.6192 10.0546 19.4575 10.1593C19.2958 10.2639 19.1678 10.4132 19.0891 10.589L16.6221 16.051L10.9211 16.504C10.7295 16.5192 10.5464 16.5892 10.3936 16.7057C10.2409 16.8222 10.1249 16.9803 10.0596 17.161C9.99428 17.3417 9.98243 17.5374 10.0254 17.7247C10.0684 17.912 10.1645 18.0829 10.3021 18.217L14.5161 22.324L13.0251 28.776ZM20.0001 13.43L22.0421 17.951L22.6301 17.998L26.6031 18.313L23.3321 21.257L23.3311 21.259L22.8681 21.675L23.0391 22.272V22.275L24.2921 26.66L20.0001 23.799V13.43Z" fill="#F6B40B"/>
</svg>
