<svg width="40" height="40" viewBox="0 0 40 40" fill="none" xmlns="http://www.w3.org/2000/svg">
<rect width="40" height="40" rx="4" fill="#F2F2F2"/>
<path fill-rule="evenodd" clip-rule="evenodd" d="M11.1785 13.9998L12.5 15.3213L11.5715 16.2498L9.07251 13.7493V12.8223L11.57 10.3218L12.5 11.2503L11.2505 12.4998H30.5V13.9998H11.1785ZM14 29.8188V16.1823L14.75 15.4998H17.75L18.5 16.1823V29.8173L17.75 30.4998H14.75L14 29.8188ZM20 26.8338V16.1658L20.75 15.4998H23.75L24.5 16.1658V26.8338L23.75 27.4998H20.75L20 26.8338ZM26 16.1433V23.8578L26.75 24.4998H29.75L30.5 23.8578V16.1433L29.75 15.4998H26.75L26 16.1433Z" fill="#F6B40B"/>
</svg>
