<svg width="40" height="40" viewBox="0 0 40 40" fill="none" xmlns="http://www.w3.org/2000/svg">
<rect width="40" height="40" rx="4" fill="#F2F2F2"/>
<path d="M28.0297 14.7664C28.1703 14.907 28.25 15.0969 28.25 15.2961V29.75C28.25 30.1648 27.9148 30.5 27.5 30.5H12.5C12.0852 30.5 11.75 30.1648 11.75 29.75V10.25C11.75 9.83516 12.0852 9.5 12.5 9.5H22.4539C22.6531 9.5 22.8453 9.57969 22.9859 9.72031L28.0297 14.7664ZM26.5203 15.6406L22.1094 11.2297V15.6406H26.5203ZM15.5 19.2969C15.4503 19.2969 15.4026 19.3166 15.3674 19.3518C15.3323 19.387 15.3125 19.4346 15.3125 19.4844V20.6094C15.3125 20.6591 15.3323 20.7068 15.3674 20.742C15.4026 20.7771 15.4503 20.7969 15.5 20.7969H24.5C24.5497 20.7969 24.5974 20.7771 24.6326 20.742C24.6677 20.7068 24.6875 20.6591 24.6875 20.6094V19.4844C24.6875 19.4346 24.6677 19.387 24.6326 19.3518C24.5974 19.3166 24.5497 19.2969 24.5 19.2969H15.5ZM15.5 22.4844C15.4503 22.4844 15.4026 22.5041 15.3674 22.5393C15.3323 22.5745 15.3125 22.6221 15.3125 22.6719V23.7969C15.3125 23.8466 15.3323 23.8943 15.3674 23.9295C15.4026 23.9646 15.4503 23.9844 15.5 23.9844H19.8125C19.8622 23.9844 19.9099 23.9646 19.9451 23.9295C19.9802 23.8943 20 23.8466 20 23.7969V22.6719C20 22.6221 19.9802 22.5745 19.9451 22.5393C19.9099 22.5041 19.8622 22.4844 19.8125 22.4844H15.5Z" fill="#F6B40B"/>
</svg>
